<?xml version="1.0" encoding="UTF-8"?>
<!-- Created with Inkscape (http://www.inkscape.org/) -->
<svg width="224mm" height="64mm" version="1.1" viewBox="0 0 224 64" xmlns="http://www.w3.org/2000/svg">
 <g transform="translate(0 -51.609)">
  <path d="m43.099 90.018c0 0.50372 0.0468 0.99592 0.108 1.4821h24.541c0.05638-0.46361 0.09974-0.9365 0.09974-1.4154 0-0.68575-0.07388-1.3495-0.18294-1.9978h-24.382c-0.10793 0.63098-0.18345 1.2717-0.18345 1.9311z" fill="#008000" stroke-linecap="round" stroke-linejoin="round" stroke-width="104.33" style="paint-order:stroke markers fill;text-orientation:upright"/>
  <path d="m55.711 74.743c-9.1379 0-16.158 6.6811-16.158 15.342 0 8.456 7.0925 15.276 15.958 15.276 8.8651 0 15.883-6.7498 15.883-15.342 0-8.3878-7.0227-15.275-15.683-15.275zm-0.40773 3.4794c7.0921 0 12.545 5.1112 12.545 11.862 0 6.5465-5.4492 11.804-12.337 11.804-6.8875 0-12.412-5.2564-12.412-11.871 0-6.4784 5.4528-11.796 12.204-11.796z" stroke-width="16.109"/>
  <path d="m23.849 65.062c-4.569 0-8.7337 1.7709-11.871 5.0441-3.0005 3.1369-4.978 7.9108-4.978 12.071v5.5273c0 9.2743 8.5934 17.656 18.072 17.656 4.4326 0 8.6604-1.6995 12.07-4.8364 1.9094-1.773 2.7306-2.8693 2.7306-3.6876 0-0.95476-0.68334-1.6319-1.7064-1.6319-0.61374 0-0.95318 0.20371-1.4986 0.74931-3.6824 4.228-6.9585 5.9356-11.596 5.9356-7.8422 0-14.526-6.6908-14.526-14.601v-4.7036c0-7.774 5.9361-14.043 13.369-14.043 5.8646 0 11.046 3.3369 11.387 7.2921 0.13692 1.2956 0.68232 1.9146 1.7735 1.9146 1.1593 0 1.773-0.75696 1.773-2.189v-7.5003c0-1.4321-0.61366-2.1146-1.773-2.1146-1.1593 0-1.7735 0.75087-1.7735 2.1146v1.0904c-3.1369-2.6595-7.0897-4.0871-11.454-4.0871z" stroke-width="16.109"/>
  <g fill="#008000" stroke-width="16.109">
   <path d="m113.99 75.701c-1.5002 0-2.1807 0.54706-2.1807 1.7064 0 1.1593 0.74879 1.773 2.1807 1.773h7.7086v21.61h-10.572c-1.4321 0-2.1813 0.61573-2.1813 1.7069 0 1.1594 0.74931 1.773 2.1813 1.773h24.682c1.4321 0 2.2562-0.61382 2.2562-1.773 0-1.091-0.75592-1.7069-2.2562-1.7069h-10.564v-25.089z"/>
   <path d="m212.49 75.018v5.17e-4c-3.5461 0-6.7517 1.773-12.753 7.0921v-6.4099h-8.2496c-1.4321 0-2.2562 0.61572-2.2562 1.7069 0 1.091 0.82407 1.773 2.2562 1.773h4.7031v21.61h-6.21c-1.4321 0-2.2474 0.68335-2.2474 1.7064 0 1.1593 0.8154 1.7735 2.2474 1.7735h21.618c1.3639 0 2.1813-0.61435 2.1813-1.7735 0-1.0229-0.81731-1.7064-2.1813-1.7064h-11.862v-14.176c7.3649-6.6148 9.6121-8.1163 12.544-8.1163 1.3639 0 2.5926 0.61083 4.2292 2.2474 0.54561 0.4773 0.75103 0.61598 1.3648 0.61598 1.0229 0 1.7735-0.74872 1.7735-1.8397 0-0.68188-0.41115-1.2993-1.7069-2.3223-1.8412-1.5685-3.3384-2.1813-5.4524-2.1813z"/>
   <path d="m176.23 74.743c-9.1379 0-16.158 6.6811-16.158 15.342 0 8.456 7.0931 15.276 15.958 15.276 8.8651 0 15.883-6.7493 15.883-15.342 0-8.3878-7.0227-15.276-15.683-15.276zm-0.40772 3.4799c7.0921 0 12.545 5.1106 12.545 11.862 0 6.5465-5.4492 11.804-12.337 11.804-6.8876 0-12.412-5.2558-12.412-11.871 0-6.4784 5.4522-11.796 12.203-11.796z"/>
   <path d="m139.36 65.944c-1.1594 0-1.773 0.75071-1.773 2.1146v7.6419h-4.7118c-1.5002 0-2.2474 0.54706-2.2474 1.7064 0 1.1593 0.74725 1.773 2.2474 1.773h4.7118v17.59c0 5.1827 4.2968 8.5907 10.98 8.5907 3.2051 0 7.0243-0.74563 10.298-1.973 2.5232-0.95477 3.6127-1.8405 3.6127-2.8634 0-0.95477-0.75164-1.7069-1.7064-1.7069-0.34103 0-0.61875 0.06443-1.2325 0.47439-2.6596 1.5002-7.3624 2.5973-11.113 2.5973-4.5007 0-7.2921-2.0473-7.2921-5.2524v-17.456h14.593c1.5002 0 2.2474-0.61366 2.2474-1.773 0-1.1593-0.74727-1.7069-2.2474-1.7069h-14.593v-7.6414c0-1.4321-0.61381-2.1146-1.773-2.1146z"/>
   <path d="m96.397 63.148c-1.4321 0-2.1813 0.6152-2.1813 1.7064 0 1.1593 0.74931 1.773 2.1813 1.773h3.3378v14.326c-3.0687-4.0916-7.1534-6.21-11.995-6.21-8.3878 0-15.142 6.8196-15.142 15.276 0 8.456 6.7477 15.342 15.067 15.342 4.8417 0 9.0695-2.1783 12.07-6.2017v5.1113h6.8926c1.4321 0 2.1813-0.61434 2.1813-1.7735 0-1.091-0.74932-1.7064-2.1813-1.7064h-3.346v-37.643zm-8.5912 15.076c6.7511 0 11.929 5.1106 11.929 11.862 0 6.5465-5.2491 11.804-11.796 11.804-6.6148 0-11.796-5.2558-11.796-11.871 0-6.5466 5.184-11.796 11.662-11.796z"/>
   <path d="m119.27 61.857v7.7081h4.7697v-7.7081z"/>
  </g>
 </g>
</svg>
